<svg width="25" height="25" viewBox="0 0 25 25" fill="none" xmlns="http://www.w3.org/2000/svg">
<g clip-path="url(#clip0)">
<path d="M25 12.5C25 19.4036 19.4036 25 12.5 25C5.59635 25 0 19.4036 0 12.5C0 5.59635 5.59635 0 12.5 0C19.4036 0 25 5.59635 25 12.5Z" fill="white"/>
<path d="M13.0486 24.9872C19.6976 24.7002 25 19.2196 25 12.5C25 12.4514 24.9987 12.4029 24.9981 12.3543L16.3214 3.67737L7.04404 13.3743L12.1986 18.5289L9.8219 21.7606L13.0486 24.9872Z" fill="#C9D6E7"/>
<path d="M16.3214 3.67737V6.50787C16.3214 6.50787 13.0716 6.03619 13.0716 8.13274V10.2293H16.0069L15.6401 13.4266H13.0716V21.7606H9.82189V13.4266L7.04384 13.3741V10.2293H9.76944V7.81822C9.76944 7.81822 9.58958 4.23145 13.1241 3.57265C14.5918 3.29895 16.3214 3.67737 16.3214 3.67737V3.67737Z" fill="black"/>
<path d="M16.3214 6.50787V3.67737C16.3214 3.67737 14.5918 3.29895 13.1241 3.57265C12.8948 3.61538 12.6816 3.67069 12.4826 3.73611V21.7606H13.0716V13.4266H15.6399L16.0069 10.2293H13.0716C13.0716 10.2293 13.0716 10.2293 13.0716 8.13274C13.0716 6.03619 16.3214 6.50787 16.3214 6.50787Z" fill="black"/>
</g>
<defs>
<clipPath id="clip0">
<rect width="25" height="25" fill="white"/>
</clipPath>
</defs>
</svg>
